<?xml version="1.0" standalone="no"?><!DOCTYPE svg PUBLIC "-//W3C//DTD SVG 1.1//EN" "http://www.w3.org/Graphics/SVG/1.1/DTD/svg11.dtd"><svg t="1505962771629" class="icon" style="" viewBox="0 0 1024 1024" version="1.1" xmlns="http://www.w3.org/2000/svg" p-id="2365" xmlns:xlink="http://www.w3.org/1999/xlink" width="128" height="128"><defs><style type="text/css"></style></defs><path d="M358.016 548.992H114.016q-47.008 0-80.512 33.504T0 663.008v244.992q0 48 33.504 82.016t80.512 34.016h244q48 0 80.992-33.504t32.992-80.512v-244q2.016-48.992-31.488-83.008t-82.496-34.016z m0-548.992H114.016Q67.008 0 33.504 33.504T0 114.016v244q0 48 33.504 80.992t80.512 32.992h244q48 0 80.992-32.992t32.992-80.992V114.016q2.016-47.008-31.488-80.512T358.016 0z m552 548.992h-244q-48 0-80.992 33.504t-32.992 80.512v244.992q0 47.008 32.992 80.512t80.992 33.504h244q47.008 0 80.512-33.504t33.504-80.512v-242.016q0-48.992-33.504-83.008t-80.512-34.016z m0-548.992h-244q-48 0-80.992 33.504t-32.992 80.512v244q0 48 32.992 80.992t80.992 32.992h244q47.008 0 80.512-32.992t33.504-80.992V114.016q0-47.008-33.504-80.512T910.016 0z" fill="" p-id="2366"></path></svg>