<?xml version="1.0" standalone="no"?><!DOCTYPE svg PUBLIC "-//W3C//DTD SVG 1.1//EN" "http://www.w3.org/Graphics/SVG/1.1/DTD/svg11.dtd"><svg t="1506300338812" class="icon" style="" viewBox="0 0 1037 1024" version="1.1" xmlns="http://www.w3.org/2000/svg" p-id="7449" xmlns:xlink="http://www.w3.org/1999/xlink" width="113.421875" height="112"><defs><style type="text/css"></style></defs><path d="M407.066667 128.266667h206.4c17.2 0 30.933333-17.2 30.933333-34.4 0-20.666667-13.733333-34.4-30.933333-34.4H407.066667c-17.2 0-30.933333 17.2-30.933334 34.4 0 20.666667 13.733333 34.4 30.933334 34.4z m309.6 37.866666c20.666667 0 34.4-13.733333 34.4-27.466666V28.533333C751.066667 11.333333 737.333333 1.066667 716.666667 1.066667s-34.4 13.733333-34.4 27.466666v110c0 17.2 17.2 27.6 34.4 27.6z" p-id="7450" fill="#b3b3b3"></path><path d="M840.4 56h-20.666667C799.066667 56 785.333333 73.2 785.333333 90.4c0 20.666667 17.2 34.4 34.4 34.4h20.666667c65.333333 0 123.866667 51.6 123.866667 120.4v581.2c0 65.333333-55.066667 120.4-123.866667 120.4h-646.666667c-65.333333 0-123.866667-55.066667-123.866666-120.4V248.666667c0-65.333333 55.066667-120.4 120.4-120.4 20.666667 0 34.4-17.2 34.4-34.4 0-20.666667-13.733333-34.4-34.4-34.4C87.2 56 1.2 142 1.2 248.666667v581.2c0 106.666667 86 192.666667 192.666667 192.666666h650c106.666667 0 192.666667-86 192.666666-192.666666V248.666667C1033.066667 142 947.066667 56 840.4 56z" p-id="7451" fill="#b3b3b3"></path><path d="M303.866667 166.133333c20.666667 0 34.4-13.733333 34.4-27.466666V28.533333C338.266667 11.333333 321.066667 1.066667 303.866667 1.066667c-20.666667 0-34.4 13.733333-34.4 27.466666v110c0 17.2 17.2 27.6 34.4 27.6z m10.4 615.6l17.2 13.733334c3.466667 3.466667 6.933333 3.466667 10.266666 3.466666 3.466667 0 10.266667-3.466667 10.266667-6.933333 37.866667-44.666667 61.866667-103.2 68.8-175.466667h237.333333v116.933334c0 10.266667-3.466667 10.266667-6.933333 10.266666h-75.6c-6.933333 0-10.266667 3.466667-13.733333 6.933334-3.466667 3.466667-3.466667 10.266667-3.466667 13.733333l6.933333 17.2c3.466667 6.933333 10.266667 10.266667 17.2 10.266667h75.6c34.4 0 51.6-20.666667 51.6-55.066667V307.066667c0-10.266667-6.933333-17.2-17.2-17.2H386.533333c-10.266667 0-17.2 6.933333-17.2 17.2v268.266666c0 75.6-20.666667 134.133333-58.533333 182.266667-3.466667 6.933333-3.466667 17.2 3.466667 24.133333z m113.466666-440.266666h233.866667v86H427.733333v-86z m0 137.6h233.866667v86H427.733333v-86z" p-id="7452" fill="#b3b3b3"></path></svg>