<?xml version="1.0" standalone="no"?><!DOCTYPE svg PUBLIC "-//W3C//DTD SVG 1.1//EN" "http://www.w3.org/Graphics/SVG/1.1/DTD/svg11.dtd"><svg t="1506060508116" class="icon" style="" viewBox="0 0 1024 1024" version="1.1" xmlns="http://www.w3.org/2000/svg" p-id="24353" xmlns:xlink="http://www.w3.org/1999/xlink" width="128" height="128"><defs><style type="text/css"></style></defs><path d="M275.3 65.7c-116.8 0-211.4 94.6-211.4 211.4 0 116.8 94.6 211.4 211.4 211.4h211.4V277.1c0-116.7-94.6-211.4-211.4-211.4z m157.8 369.1H275.4c-87.1 0-157.6-70.6-157.6-157.6 0-87.1 70.6-157.6 157.6-157.6 87.1 0 157.6 70.6 157.6 157.6v157.6z m315.6 100.7H537.3v211.4c0 116.8 94.6 211.4 211.4 211.4 32.7 0 64.5-7.5 93.4-21.7 11-5.5 13.8-24.9 8.4-35.9-5.5-11-21.8-17.9-32.9-12.5-22.7 11.2-43.2 15.6-69 15.6-81 0-157.2-64.8-157.2-156.9V588.5h157.2c92.2 0 158.1 73.1 158.1 157.6 0 16.3-1.8 29.1-6.3 44.4-3.5 11.8 6.7 27 18.4 30.6 11.8 3.5 29-2.4 32.5-14.2 5.7-19.3 8.6-39.4 8.6-59.9 0.2-116.9-94.5-211.5-211.2-211.5z m0 0M464.5 535.5H275.3c-116.8 0-211.4 94.6-211.4 211.4s94.6 211.4 211.4 211.4c116.8 0 211.4-94.6 211.4-211.4V535.5h-22.2z m-31.4 211.4c0 87.1-70.6 157.6-157.6 157.6-87.1 0-157.6-70.6-157.6-157.6 0-87.1 70.6-157.6 157.6-157.6h157.6v157.6z m0 0M748.7 65.7c-116.8 0-211.4 94.6-211.4 211.4v211.4h211.4c116.8 0 211.4-94.6 211.4-211.4 0-116.8-94.7-211.4-211.4-211.4z m0 369.2H590.9V277.2c0-87.1 70.6-157.6 157.6-157.6 87.1 0 157.6 70.6 157.6 157.6 0.1 87.1-70.3 157.7-157.4 157.7z m0 0" fill="#13227a" p-id="24354"></path></svg>