<?xml version="1.0" standalone="no"?><!DOCTYPE svg PUBLIC "-//W3C//DTD SVG 1.1//EN" "http://www.w3.org/Graphics/SVG/1.1/DTD/svg11.dtd"><svg t="1506300358898" class="icon" style="" viewBox="0 0 1024 1024" version="1.1" xmlns="http://www.w3.org/2000/svg" p-id="7791" xmlns:xlink="http://www.w3.org/1999/xlink" width="112" height="112"><defs><style type="text/css"></style></defs><path d="M430.08 689.493333h163.84c13.653333 0 20.48-10.24 20.48-20.48V580.266667c0-13.653333-10.24-20.48-20.48-20.48h-163.84c-13.653333 0-20.48 10.24-20.48 20.48v88.746666c0 13.653333 10.24 20.48 20.48 20.48z m23.893333-85.333333h122.88v47.786667h-122.88v-47.786667z" p-id="7792" fill="#b3b3b3"></path><path d="M283.306667 781.653333c3.413333 0 6.826667 3.413333 13.653333 3.413334h3.413333c6.826667 0 10.24-3.413333 10.24-10.24 34.133333-64.853333 51.2-146.773333 51.2-249.173334v-177.493333h310.613334v375.466667c0 6.826667 0 6.826667-6.826667 6.826666h-68.266667c-6.826667 0-10.24 3.413333-13.653333 6.826667-3.413333 3.413333-3.413333 10.24-3.413333 13.653333l3.413333 17.066667c3.413333 6.826667 10.24 13.653333 17.066667 13.653333h71.68c27.306667 0 44.373333-13.653333 51.2-34.133333V314.026667c0-10.24-6.826667-17.066667-17.066667-17.066667H327.68c-10.24 0-17.066667 10.24-17.066667 17.066667v215.04c0 88.746667-17.066667 163.84-44.373333 218.453333-3.413333 6.826667 0 13.653333 3.413333 20.48l13.653334 13.653333z" p-id="7793" fill="#b3b3b3"></path><path d="M402.773333 484.693333c-10.24 0-17.066667 6.826667-17.066666 17.066667v13.653333c0 10.24 10.24 17.066667 17.066666 17.066667h221.866667c10.24 0 17.066667-10.24 17.066667-17.066667v-13.653333c0-10.24-6.826667-17.066667-17.066667-17.066667h-85.333333v-23.893333h68.266666c10.24 0 17.066667-6.826667 17.066667-17.066667v-13.653333c0-10.24-6.826667-17.066667-17.066667-17.066667h-68.266666v-27.306666c0-10.24-10.24-17.066667-17.066667-17.066667h-13.653333c-10.24 0-17.066667 6.826667-17.066667 17.066667v27.306666h-71.68c-10.24 0-17.066667 6.826667-17.066667 17.066667v13.653333c0 10.24 10.24 17.066667 17.066667 17.066667h71.68v23.893333h-88.746667zM709.973333 163.84c20.48 0 34.133333-13.653333 34.133334-27.306667V27.306667c0-17.066667-13.653333-27.306667-34.133334-27.306667s-34.133333 13.653333-34.133333 27.306667V136.533333c0 17.066667 17.066667 27.306667 34.133333 27.306667zM300.373333 163.84c20.48 0 34.133333-13.653333 34.133334-27.306667V27.306667c0-17.066667-17.066667-27.306667-34.133334-27.306667s-34.133333 13.653333-34.133333 27.306667V136.533333c0 17.066667 17.066667 27.306667 34.133333 27.306667zM402.773333 126.293333h204.8c17.066667 0 30.72-17.066667 30.72-34.133333 0-20.48-13.653333-34.133333-30.72-34.133333h-204.8c-17.066667 0-30.72 17.066667-30.72 34.133333 3.413333 20.48 17.066667 34.133333 30.72 34.133333z" p-id="7794" fill="#b3b3b3"></path><path d="M836.266667 54.613333h-20.48c-20.48 0-34.133333 17.066667-34.133334 34.133334s17.066667 34.133333 34.133334 34.133333h20.48c64.853333 0 119.466667 51.2 119.466666 119.466667V819.2c0 64.853333-54.613333 119.466667-119.466666 119.466667H191.146667c-64.853333 0-119.466667-54.613333-119.466667-119.466667V245.76c0-64.853333 54.613333-119.466667 119.466667-119.466667 20.48 0 34.133333-17.066667 34.133333-34.133333s-17.066667-34.133333-34.133333-34.133333C85.333333 54.613333 0 139.946667 0 245.76v576.853333c0 105.813333 85.333333 191.146667 191.146667 191.146667h645.12c105.813333 0 187.733333-85.333333 187.733333-191.146667V245.76c0-105.813333-85.333333-191.146667-187.733333-191.146667z" p-id="7795" fill="#b3b3b3"></path></svg>